<mxfile host="Electron" agent="Mozilla/5.0 (Windows NT 10.0; Win64; x64) AppleWebKit/537.36 (KHTML, like Gecko) draw.io/26.0.9 Chrome/128.0.6613.186 Electron/32.2.5 Safari/537.36" version="26.0.9">
  <diagram name="Stránka-1" id="PPLfMc53AWSOph58zVac">
    <mxGraphModel dx="1050" dy="621" grid="1" gridSize="10" guides="1" tooltips="1" connect="1" arrows="1" fold="1" page="1" pageScale="1" pageWidth="827" pageHeight="1169" math="0" shadow="0">
      <root>
        <mxCell id="0" />
        <mxCell id="1" parent="0" />
        <mxCell id="EnLzIwfNGokQbZ2dLQVw-22" style="edgeStyle=orthogonalEdgeStyle;rounded=0;orthogonalLoop=1;jettySize=auto;html=1;entryX=0;entryY=0.5;entryDx=0;entryDy=0;" parent="1" source="EnLzIwfNGokQbZ2dLQVw-1" target="EnLzIwfNGokQbZ2dLQVw-2" edge="1">
          <mxGeometry relative="1" as="geometry">
            <Array as="points">
              <mxPoint x="220" y="153" />
              <mxPoint x="220" y="111" />
            </Array>
          </mxGeometry>
        </mxCell>
        <mxCell id="EnLzIwfNGokQbZ2dLQVw-23" style="edgeStyle=orthogonalEdgeStyle;rounded=0;orthogonalLoop=1;jettySize=auto;html=1;entryX=0;entryY=0.5;entryDx=0;entryDy=0;" parent="1" source="EnLzIwfNGokQbZ2dLQVw-1" target="EnLzIwfNGokQbZ2dLQVw-24" edge="1">
          <mxGeometry relative="1" as="geometry">
            <mxPoint x="300" y="360" as="targetPoint" />
            <Array as="points">
              <mxPoint x="220" y="153" />
              <mxPoint x="220" y="278" />
            </Array>
          </mxGeometry>
        </mxCell>
        <mxCell id="EnLzIwfNGokQbZ2dLQVw-40" style="edgeStyle=orthogonalEdgeStyle;rounded=0;orthogonalLoop=1;jettySize=auto;html=1;entryX=0;entryY=0.5;entryDx=0;entryDy=0;" parent="1" source="EnLzIwfNGokQbZ2dLQVw-1" target="EnLzIwfNGokQbZ2dLQVw-41" edge="1">
          <mxGeometry relative="1" as="geometry">
            <mxPoint x="290" y="510" as="targetPoint" />
            <Array as="points">
              <mxPoint x="220" y="153" />
              <mxPoint x="220" y="413" />
            </Array>
          </mxGeometry>
        </mxCell>
        <mxCell id="EnLzIwfNGokQbZ2dLQVw-42" style="edgeStyle=orthogonalEdgeStyle;rounded=0;orthogonalLoop=1;jettySize=auto;html=1;entryX=0;entryY=0.5;entryDx=0;entryDy=0;" parent="1" source="EnLzIwfNGokQbZ2dLQVw-1" target="EnLzIwfNGokQbZ2dLQVw-43" edge="1">
          <mxGeometry relative="1" as="geometry">
            <mxPoint x="300" y="590" as="targetPoint" />
            <Array as="points">
              <mxPoint x="220" y="153" />
              <mxPoint x="220" y="533" />
            </Array>
          </mxGeometry>
        </mxCell>
        <mxCell id="OhfzGPkpBtiWGEi78qNa-2" style="edgeStyle=orthogonalEdgeStyle;rounded=0;orthogonalLoop=1;jettySize=auto;html=1;entryX=0;entryY=0.5;entryDx=0;entryDy=0;" edge="1" parent="1" source="EnLzIwfNGokQbZ2dLQVw-1" target="OhfzGPkpBtiWGEi78qNa-1">
          <mxGeometry relative="1" as="geometry">
            <Array as="points">
              <mxPoint x="220" y="153" />
              <mxPoint x="220" y="473" />
            </Array>
          </mxGeometry>
        </mxCell>
        <mxCell id="EnLzIwfNGokQbZ2dLQVw-1" value="&lt;font style=&quot;font-size: 13px;&quot;&gt;Pracovník banky&lt;/font&gt;" style="shape=umlActor;verticalLabelPosition=bottom;verticalAlign=top;html=1;outlineConnect=0;fontSize=13;" parent="1" vertex="1">
          <mxGeometry x="92.13693028705332" y="93.40341246290802" width="53.346514352665494" height="119.28453676228158" as="geometry" />
        </mxCell>
        <mxCell id="EnLzIwfNGokQbZ2dLQVw-2" value="Spravovat klienta" style="ellipse;whiteSpace=wrap;html=1;fontSize=13;" parent="1" vertex="1">
          <mxGeometry x="300.0011540714704" y="88.38221562809098" width="162.17340363210312" height="45.87866798549291" as="geometry" />
        </mxCell>
        <mxCell id="EnLzIwfNGokQbZ2dLQVw-5" style="edgeStyle=orthogonalEdgeStyle;rounded=0;orthogonalLoop=1;jettySize=auto;html=1;entryX=0.997;entryY=0.477;entryDx=0;entryDy=0;dashed=1;entryPerimeter=0;exitX=0;exitY=0.5;exitDx=0;exitDy=0;" parent="1" source="EnLzIwfNGokQbZ2dLQVw-6" target="EnLzIwfNGokQbZ2dLQVw-2" edge="1">
          <mxGeometry relative="1" as="geometry">
            <Array as="points">
              <mxPoint x="530" y="199" />
              <mxPoint x="530" y="110" />
            </Array>
            <mxPoint x="462.17" y="116" as="targetPoint" />
          </mxGeometry>
        </mxCell>
        <mxCell id="EnLzIwfNGokQbZ2dLQVw-6" value="Smazat klienta" style="ellipse;whiteSpace=wrap;html=1;" parent="1" vertex="1">
          <mxGeometry x="658.3" y="179.99976371691474" width="130" height="38.6402362830853" as="geometry" />
        </mxCell>
        <mxCell id="EnLzIwfNGokQbZ2dLQVw-11" value="&amp;lt;&amp;lt;extend&amp;gt;&amp;gt;" style="text;html=1;strokeColor=none;fillColor=none;align=center;verticalAlign=middle;whiteSpace=wrap;rounded=0;" parent="1" vertex="1">
          <mxGeometry x="597.68" y="174.35999999999999" width="60" height="30" as="geometry" />
        </mxCell>
        <mxCell id="EnLzIwfNGokQbZ2dLQVw-13" value="Upravit klienta" style="ellipse;whiteSpace=wrap;html=1;" parent="1" vertex="1">
          <mxGeometry x="657.68" y="135.72148017721244" width="130" height="38.6402362830853" as="geometry" />
        </mxCell>
        <mxCell id="EnLzIwfNGokQbZ2dLQVw-14" value="Vytvořit klienta" style="ellipse;whiteSpace=wrap;html=1;" parent="1" vertex="1">
          <mxGeometry x="658.3" y="92.00148017721244" width="130" height="38.6402362830853" as="geometry" />
        </mxCell>
        <mxCell id="EnLzIwfNGokQbZ2dLQVw-18" style="edgeStyle=orthogonalEdgeStyle;rounded=0;orthogonalLoop=1;jettySize=auto;html=1;exitX=0;exitY=0.5;exitDx=0;exitDy=0;dashed=1;endArrow=none;startFill=0;" parent="1" edge="1">
          <mxGeometry relative="1" as="geometry">
            <mxPoint x="529.68" y="154.76" as="targetPoint" />
            <mxPoint x="657.68" y="154.76" as="sourcePoint" />
          </mxGeometry>
        </mxCell>
        <mxCell id="EnLzIwfNGokQbZ2dLQVw-19" style="edgeStyle=orthogonalEdgeStyle;rounded=0;orthogonalLoop=1;jettySize=auto;html=1;exitX=0;exitY=0.5;exitDx=0;exitDy=0;dashed=1;endArrow=none;startFill=0;" parent="1" edge="1">
          <mxGeometry relative="1" as="geometry">
            <mxPoint x="530.3" y="110.06" as="targetPoint" />
            <mxPoint x="658.3" y="110.06" as="sourcePoint" />
          </mxGeometry>
        </mxCell>
        <mxCell id="EnLzIwfNGokQbZ2dLQVw-20" value="&amp;lt;&amp;lt;extend&amp;gt;&amp;gt;" style="text;html=1;strokeColor=none;fillColor=none;align=center;verticalAlign=middle;whiteSpace=wrap;rounded=0;" parent="1" vertex="1">
          <mxGeometry x="597.68" y="130.64" width="60" height="30" as="geometry" />
        </mxCell>
        <mxCell id="EnLzIwfNGokQbZ2dLQVw-21" value="&amp;lt;&amp;lt;extend&amp;gt;&amp;gt;" style="text;html=1;strokeColor=none;fillColor=none;align=center;verticalAlign=middle;whiteSpace=wrap;rounded=0;" parent="1" vertex="1">
          <mxGeometry x="598.4499999999999" y="80" width="60" height="30" as="geometry" />
        </mxCell>
        <mxCell id="EnLzIwfNGokQbZ2dLQVw-24" value="Spravovat účet" style="ellipse;whiteSpace=wrap;html=1;fontSize=13;" parent="1" vertex="1">
          <mxGeometry x="300.0011540714704" y="255.002215628091" width="162.17340363210312" height="45.87866798549291" as="geometry" />
        </mxCell>
        <mxCell id="EnLzIwfNGokQbZ2dLQVw-25" style="edgeStyle=orthogonalEdgeStyle;rounded=0;orthogonalLoop=1;jettySize=auto;html=1;exitX=0;exitY=0.5;exitDx=0;exitDy=0;dashed=1;endArrow=none;startFill=0;" parent="1" source="EnLzIwfNGokQbZ2dLQVw-26" edge="1">
          <mxGeometry relative="1" as="geometry">
            <mxPoint x="530.15" y="409" as="targetPoint" />
          </mxGeometry>
        </mxCell>
        <mxCell id="EnLzIwfNGokQbZ2dLQVw-26" value="Spravovat disponenty" style="ellipse;whiteSpace=wrap;html=1;" parent="1" vertex="1">
          <mxGeometry x="658.4499999999999" y="389.63148017721244" width="130" height="38.6402362830853" as="geometry" />
        </mxCell>
        <mxCell id="EnLzIwfNGokQbZ2dLQVw-27" style="edgeStyle=orthogonalEdgeStyle;rounded=0;orthogonalLoop=1;jettySize=auto;html=1;entryX=0.997;entryY=0.477;entryDx=0;entryDy=0;dashed=1;entryPerimeter=0;" parent="1" source="EnLzIwfNGokQbZ2dLQVw-28" edge="1">
          <mxGeometry relative="1" as="geometry">
            <Array as="points">
              <mxPoint x="530.15" y="452" />
              <mxPoint x="530.15" y="278" />
              <mxPoint x="462.15" y="278" />
            </Array>
            <mxPoint x="462.15" y="278" as="targetPoint" />
          </mxGeometry>
        </mxCell>
        <mxCell id="EnLzIwfNGokQbZ2dLQVw-28" value="Smazat účet" style="ellipse;whiteSpace=wrap;html=1;" parent="1" vertex="1">
          <mxGeometry x="658.4499999999999" y="432.44976371691473" width="130" height="38.6402362830853" as="geometry" />
        </mxCell>
        <mxCell id="EnLzIwfNGokQbZ2dLQVw-29" value="Změnit vlastníka" style="ellipse;whiteSpace=wrap;html=1;" parent="1" vertex="1">
          <mxGeometry x="657.8299999999999" y="347.37148017721245" width="130" height="38.6402362830853" as="geometry" />
        </mxCell>
        <mxCell id="EnLzIwfNGokQbZ2dLQVw-30" value="&amp;lt;&amp;lt;extend&amp;gt;&amp;gt;" style="text;html=1;strokeColor=none;fillColor=none;align=center;verticalAlign=middle;whiteSpace=wrap;rounded=0;" parent="1" vertex="1">
          <mxGeometry x="597.8299999999999" y="342.36" width="60" height="30" as="geometry" />
        </mxCell>
        <mxCell id="EnLzIwfNGokQbZ2dLQVw-31" value="&amp;lt;&amp;lt;extend&amp;gt;&amp;gt;" style="text;html=1;strokeColor=none;fillColor=none;align=center;verticalAlign=middle;whiteSpace=wrap;rounded=0;" parent="1" vertex="1">
          <mxGeometry x="598.4499999999999" y="386.0100000000001" width="60" height="30" as="geometry" />
        </mxCell>
        <mxCell id="EnLzIwfNGokQbZ2dLQVw-32" value="&amp;lt;&amp;lt;extend&amp;gt;&amp;gt;" style="text;html=1;strokeColor=none;fillColor=none;align=center;verticalAlign=middle;whiteSpace=wrap;rounded=0;" parent="1" vertex="1">
          <mxGeometry x="598.4499999999999" y="428.27" width="60" height="30" as="geometry" />
        </mxCell>
        <mxCell id="EnLzIwfNGokQbZ2dLQVw-33" value="Změnit stav účtu" style="ellipse;whiteSpace=wrap;html=1;" parent="1" vertex="1">
          <mxGeometry x="657.8299999999999" y="303.72148017721247" width="130" height="38.6402362830853" as="geometry" />
        </mxCell>
        <mxCell id="EnLzIwfNGokQbZ2dLQVw-34" value="Vytvořit účet" style="ellipse;whiteSpace=wrap;html=1;" parent="1" vertex="1">
          <mxGeometry x="658.4499999999999" y="260.00148017721244" width="130" height="38.6402362830853" as="geometry" />
        </mxCell>
        <mxCell id="EnLzIwfNGokQbZ2dLQVw-35" style="edgeStyle=orthogonalEdgeStyle;rounded=0;orthogonalLoop=1;jettySize=auto;html=1;exitX=0;exitY=0.5;exitDx=0;exitDy=0;dashed=1;endArrow=none;startFill=0;" parent="1" edge="1">
          <mxGeometry relative="1" as="geometry">
            <mxPoint x="530.4499999999999" y="366.40999999999997" as="targetPoint" />
            <mxPoint x="658.4499999999999" y="366.40999999999997" as="sourcePoint" />
          </mxGeometry>
        </mxCell>
        <mxCell id="EnLzIwfNGokQbZ2dLQVw-36" style="edgeStyle=orthogonalEdgeStyle;rounded=0;orthogonalLoop=1;jettySize=auto;html=1;exitX=0;exitY=0.5;exitDx=0;exitDy=0;dashed=1;endArrow=none;startFill=0;" parent="1" edge="1">
          <mxGeometry relative="1" as="geometry">
            <mxPoint x="529.8299999999999" y="322.76" as="targetPoint" />
            <mxPoint x="657.8299999999999" y="322.76" as="sourcePoint" />
          </mxGeometry>
        </mxCell>
        <mxCell id="EnLzIwfNGokQbZ2dLQVw-37" style="edgeStyle=orthogonalEdgeStyle;rounded=0;orthogonalLoop=1;jettySize=auto;html=1;exitX=0;exitY=0.5;exitDx=0;exitDy=0;dashed=1;endArrow=none;startFill=0;" parent="1" edge="1">
          <mxGeometry relative="1" as="geometry">
            <mxPoint x="530.4499999999999" y="278.06" as="targetPoint" />
            <mxPoint x="658.4499999999999" y="278.06" as="sourcePoint" />
          </mxGeometry>
        </mxCell>
        <mxCell id="EnLzIwfNGokQbZ2dLQVw-38" value="&amp;lt;&amp;lt;extend&amp;gt;&amp;gt;" style="text;html=1;strokeColor=none;fillColor=none;align=center;verticalAlign=middle;whiteSpace=wrap;rounded=0;" parent="1" vertex="1">
          <mxGeometry x="597.8299999999999" y="298.64" width="60" height="30" as="geometry" />
        </mxCell>
        <mxCell id="EnLzIwfNGokQbZ2dLQVw-39" value="&amp;lt;&amp;lt;extend&amp;gt;&amp;gt;" style="text;html=1;strokeColor=none;fillColor=none;align=center;verticalAlign=middle;whiteSpace=wrap;rounded=0;" parent="1" vertex="1">
          <mxGeometry x="597.8299999999999" y="248" width="60" height="30" as="geometry" />
        </mxCell>
        <mxCell id="EnLzIwfNGokQbZ2dLQVw-41" value="Zadat novou operaci" style="ellipse;whiteSpace=wrap;html=1;fontSize=13;" parent="1" vertex="1">
          <mxGeometry x="300.0011540714704" y="389.632215628091" width="162.17340363210312" height="45.87866798549291" as="geometry" />
        </mxCell>
        <mxCell id="EnLzIwfNGokQbZ2dLQVw-43" value="Vytvořit a zaslat výpis klientovi" style="ellipse;whiteSpace=wrap;html=1;fontSize=13;" parent="1" vertex="1">
          <mxGeometry x="300.0011540714704" y="510.002215628091" width="162.17340363210312" height="45.87866798549291" as="geometry" />
        </mxCell>
        <mxCell id="OhfzGPkpBtiWGEi78qNa-1" value="Provést operaci" style="ellipse;whiteSpace=wrap;html=1;fontSize=13;" vertex="1" parent="1">
          <mxGeometry x="300.0011540714704" y="450.002215628091" width="162.17340363210312" height="45.87866798549291" as="geometry" />
        </mxCell>
      </root>
    </mxGraphModel>
  </diagram>
</mxfile>
